<svg xmlns="http://www.w3.org/2000/svg" width="16" height="16" fill="currentColor" viewBox="261.625 0 645.11 645.11">
  <path d="M584.18,645.111c98.811,0,187.227-44.447,246.395-114.418c47.504-56.178,76.161-128.806,76.161-208.138
    C906.735,144.413,762.322,0,584.18,0C472.59,0,374.24,56.67,316.326,142.797c-34.54,51.366-54.703,113.207-54.703,179.759
    C261.625,500.697,406.037,645.111,584.18,645.111z M874.922,350.992c0.135,0.124,0.277,0.236,0.42,0.35
    c-2.85,29.344-10.07,57.858-21.584,85.081c-3.732,8.823-7.877,17.419-12.416,25.773c-0.2,0.016-0.401,0.029-0.602,0.061
    l-84.267,12.543l-32.812,4.883l-53.992-70.36l-1.422-1.852l35.193-108.312l84.855-27.881L874.922,350.992z M599.18,112.495
    l102.496-57.399c0.173-0.097,0.336-0.205,0.5-0.314c33.177,14.633,63.063,35.096,88.872,60.904
    c3.74,3.741,7.357,7.576,10.874,11.486c-0.043,0.164-0.091,0.326-0.123,0.494L779.191,242.69l-87.745,28.831l-92.268-67.036
    L599.18,112.495L599.18,112.495z M647.643,429.896l52.821,68.833l-45.616,107.279c-0.079,0.188-0.145,0.377-0.209,0.568
    c-22.886,5.662-46.45,8.535-70.46,8.535s-47.573-2.873-70.46-8.535c-0.064-0.191-0.129-0.381-0.208-0.568l-45.615-107.279
    l52.821-68.833H647.643L647.643,429.896z M377.312,115.687c25.809-25.809,55.696-46.271,88.872-60.904
    c0.164,0.108,0.328,0.217,0.5,0.314l102.496,57.397v91.99l-87.138,63.309l-5.13,3.727l-87.743-28.831l-10.373-52.774
    l-12.234-62.249c-0.033-0.167-0.08-0.33-0.123-0.494C369.953,123.263,373.57,119.428,377.312,115.687z M327.019,462.195
    c-4.54-8.354-8.684-16.95-12.416-25.773c-11.514-27.224-18.735-55.736-21.584-85.081c0.142-0.114,0.285-0.225,0.42-0.35
    l86.626-79.715l84.855,27.881l35.191,108.312l-55.414,72.212l-117.078-17.426C327.419,462.225,327.219,462.209,327.019,462.195z"></path>
</svg>